HIERARCHY
ROOT Hips
{
  OFFSET -43.3411 73.6987 0
  CHANNELS 6 Xposition Yposition Zposition Zrotation Xrotation Yrotation
  JOINT Bip01_Pelvis
  {
    OFFSET 0 0 0
    CHANNELS 6 Xposition Yposition Zposition Zrotation Xrotation Yrotation
    JOINT BN_Tail_01
    {
      OFFSET -18.6385 -9.591 -2.032e-005
      CHANNELS 6 Xposition Yposition Zposition Zrotation Xrotation Yrotation
      JOINT BN_Tail_02
      {
        OFFSET 20.9743 0 0
        CHANNELS 6 Xposition Yposition Zposition Zrotation Xrotation Yrotation
        JOINT BN_Tail_03
        {
          OFFSET 20.3015 0 0
          CHANNELS 6 Xposition Yposition Zposition Zrotation Xrotation Yrotation
          JOINT BN_Tail_04
          {
            OFFSET 21.6394 -9.91821e-005 0
            CHANNELS 6 Xposition Yposition Zposition Zrotation Xrotation Yrotation
            End Site
            {
              OFFSET 0 0 0
            }
          }
        }
      }
    }
    JOINT Bip01_Spine
    {
      OFFSET 22.1878 -0.659386 3.048e-005
      CHANNELS 6 Xposition Yposition Zposition Zrotation Xrotation Yrotation
      JOINT Bip01_R_Thigh
      {
        OFFSET -22.1873 0.677109 -17.1024
        CHANNELS 6 Xposition Yposition Zposition Zrotation Xrotation Yrotation
        JOINT Bip01_R_Calf
        {
          OFFSET 34.2647 0 0
          CHANNELS 6 Xposition Yposition Zposition Zrotation Xrotation Yrotation
          JOINT Bip01_R_HorseLink
          {
            OFFSET 20.4429 0 0
            CHANNELS 6 Xposition Yposition Zposition Zrotation Xrotation Yrotation
            JOINT Bip01_R_Foot
            {
              OFFSET 16.5673 0 0
              CHANNELS 6 Xposition Yposition Zposition Zrotation Xrotation Yrotation
              JOINT Bip01_R_Toe0
              {
                OFFSET 9.18784 6.94841 0
                CHANNELS 6 Xposition Yposition Zposition Zrotation Xrotation Yrotation
                JOINT Bip01_R_Toe0Nub
                {
                  OFFSET 1.01907 0 0
                  CHANNELS 6 Xposition Yposition Zposition Zrotation Xrotation Yrotation
                  End Site
                  {
                    OFFSET 0 0 0
                  }
                }
              }
            }
          }
        }
      }
      JOINT Bip01_L_Thigh
      {
        OFFSET -22.1873 0.67701 17.1024
        CHANNELS 6 Xposition Yposition Zposition Zrotation Xrotation Yrotation
        JOINT Bip01_L_Calf
        {
          OFFSET 34.2647 0 0
          CHANNELS 6 Xposition Yposition Zposition Zrotation Xrotation Yrotation
          JOINT Bip01_L_HorseLink
          {
            OFFSET 20.4429 0 0
            CHANNELS 6 Xposition Yposition Zposition Zrotation Xrotation Yrotation
            JOINT Bip01_L_Foot
            {
              OFFSET 16.5673 0 0
              CHANNELS 6 Xposition Yposition Zposition Zrotation Xrotation Yrotation
              JOINT Bip01_L_Toe0
              {
                OFFSET 9.18784 6.9484 1.14441e-005
                CHANNELS 6 Xposition Yposition Zposition Zrotation Xrotation Yrotation
                JOINT Bip01_L_Toe0Nub
                {
                  OFFSET 1.01907 0 0
                  CHANNELS 6 Xposition Yposition Zposition Zrotation Xrotation Yrotation
                  End Site
                  {
                    OFFSET 0 0 0
                  }
                }
              }
            }
          }
        }
      }
      JOINT Bip01_Spine1
      {
        OFFSET 39.3372 -0.0249863 0
        CHANNELS 6 Xposition Yposition Zposition Zrotation Xrotation Yrotation
        JOINT Bip01_Neck
        {
          OFFSET 34.2837 -15.5934 -4.318e-005
          CHANNELS 6 Xposition Yposition Zposition Zrotation Xrotation Yrotation
          JOINT Bip01_R_Clavicle
          {
            OFFSET -17.9452 -11.3131 -6.19287
            CHANNELS 6 Xposition Yposition Zposition Zrotation Xrotation Yrotation
            JOINT Bip01_R_UpperArm
            {
              OFFSET 17.4439 1.52588e-005 -2.28882e-005
              CHANNELS 6 Xposition Yposition Zposition Zrotation Xrotation Yrotation
              JOINT Bip01_R_Forearm
              {
                OFFSET 30.6251 1.14441e-005 0
                CHANNELS 6 Xposition Yposition Zposition Zrotation Xrotation Yrotation
                JOINT Bip01_R_Hand
                {
                  OFFSET 31.2039 0 0
                  CHANNELS 6 Xposition Yposition Zposition Zrotation Xrotation Yrotation
                  JOINT Bip01_R_Finger0
                  {
                    OFFSET 22.1039 0.255862 -0.37902
                    CHANNELS 6 Xposition Yposition Zposition Zrotation Xrotation Yrotation
                    JOINT Bip01_R_Finger0Nub
                    {
                      OFFSET 12.0552 0 0
                      CHANNELS 6 Xposition Yposition Zposition Zrotation Xrotation Yrotation
                      End Site
                      {
                        OFFSET 0 0 0
                      }
                    }
                  }
                }
              }
            }
          }
          JOINT Bip01_L_Clavicle
          {
            OFFSET -17.9452 -11.3132 6.19281
            CHANNELS 6 Xposition Yposition Zposition Zrotation Xrotation Yrotation
            JOINT Bip01_L_UpperArm
            {
              OFFSET 17.444 0 1.14441e-005
              CHANNELS 6 Xposition Yposition Zposition Zrotation Xrotation Yrotation
              JOINT Bip01_L_Forearm
              {
                OFFSET 30.6251 0 0
                CHANNELS 6 Xposition Yposition Zposition Zrotation Xrotation Yrotation
                JOINT Bip01_L_Hand
                {
                  OFFSET 31.204 0 0
                  CHANNELS 6 Xposition Yposition Zposition Zrotation Xrotation Yrotation
                  JOINT Bip01_L_Finger0
                  {
                    OFFSET 22.1039 0.255856 0.379024
                    CHANNELS 6 Xposition Yposition Zposition Zrotation Xrotation Yrotation
                    JOINT Bip01_L_Finger0Nub
                    {
                      OFFSET 12.0552 0 0
                      CHANNELS 6 Xposition Yposition Zposition Zrotation Xrotation Yrotation
                      End Site
                      {
                        OFFSET 0 0 0
                      }
                    }
                  }
                }
              }
            }
          }
          JOINT Bip01_Neck1
          {
            OFFSET 14.9359 -0.0106278 0
            CHANNELS 6 Xposition Yposition Zposition Zrotation Xrotation Yrotation
            JOINT Bip01_Head
            {
              OFFSET 14.3578 0.505501 0
              CHANNELS 6 Xposition Yposition Zposition Zrotation Xrotation Yrotation
              JOINT BN_Ear_L_01
              {
                OFFSET 3.76994 -2.35629 12.3444
                CHANNELS 6 Xposition Yposition Zposition Zrotation Xrotation Yrotation
                End Site
                {
                  OFFSET 0 0 0
                }
              }
              JOINT BN_Ear_R_01
              {
                OFFSET 3.76995 -2.35622 -12.3442
                CHANNELS 6 Xposition Yposition Zposition Zrotation Xrotation Yrotation
                End Site
                {
                  OFFSET 0 0 0
                }
              }
              JOINT BN_Mouth_01
              {
                OFFSET 11.8395 10.8645 1.27e-005
                CHANNELS 6 Xposition Yposition Zposition Zrotation Xrotation Yrotation
                JOINT BN_Tongue_01
                {
                  OFFSET 9.73752 3.21674 1.016e-005
                  CHANNELS 6 Xposition Yposition Zposition Zrotation Xrotation Yrotation
                  JOINT BN_Tongue_02
                  {
                    OFFSET 9.04304 0.053505 0
                    CHANNELS 6 Xposition Yposition Zposition Zrotation Xrotation Yrotation
                    End Site
                    {
                      OFFSET 0 0 0
                    }
                  }
                }
                JOINT BN_Beard_01
                {
                  OFFSET 6.93466 -0.751793 0
                  CHANNELS 6 Xposition Yposition Zposition Zrotation Xrotation Yrotation
                  JOINT BN_Beard_02
                  {
                    OFFSET 13.0965 1.52588e-005 0
                    CHANNELS 6 Xposition Yposition Zposition Zrotation Xrotation Yrotation
                    End Site
                    {
                      OFFSET 0 0 0
                    }
                  }
                }
              }
              JOINT Bip01_HeadNub
              {
                OFFSET 25.6158 0 0
                CHANNELS 6 Xposition Yposition Zposition Zrotation Xrotation Yrotation
                End Site
                {
                  OFFSET 0 0 0
                }
              }
            }
          }
        }
      }
    }
  }
}
MOTION
Frames:	4
Frame Time:	0.0333333
-43.3411 59.2349 1.37519 93.6159 -81.9825 -177.564 -3.8147e-006 4.76837e-007 -7.10543e-015 -92.9345 -22.518 -81.7382 -18.6385 -9.59101 -8.88178e-016 -50.0638 0.326889 179.942 20.9743 -7.6294e-006 -0.000607491 22.7721 0.200622 9.55994 20.3015 7.6294e-006 0 7.73177 2.53046 16.9741 21.6394 -7.6294e-006 1.90735e-006 10.2958 5.51745 30.7461 20.0428 -9.10545 2.87251 -15.6317 8.37453 -1.21638 -22.181 0.421272 -19.7851 -73.062 -6.82265 170.658 34.2647 -3.8147e-006 -3.8147e-006 -54.7395 5.48335e-006 8.23679e-006 20.4429 3.8147e-006 -3.8147e-006 73.1282 1.093e-007 -4.66548e-007 16.5673 2.84217e-014 -3.8147e-006 4.22363 6.55695 9.2787 9.18785 6.9484 -7.10543e-015 91.3394 -2.38871e-007 -1.0454e-005 1.01905 -2.38418e-007 0 -2.86893e-008 -7.14666e-009 2.11651e-006 -21.4611 5.40494 14.0472 -122.858 14.4121 -171.058 34.2647 -9.05991e-006 0 -106.707 4.8513e-006 -1.65917e-005 20.4429 -1.90735e-006 -3.8147e-006 110.353 -3.99982e-006 -9.08918e-006 16.5673 -3.8147e-006 -3.8147e-006 -29.0248 -5.21231 -4.21418 9.18784 6.94841 -3.8147e-006 89.9962 9.82684e-006 -1.44373e-006 1.01907 1.19209e-007 3.8147e-006 -179.96 -5.89753e-005 1.70331e-005 39.331 -0.0241928 -0.000947475 -14.367 2.20452 5.49386 34.2892 -15.5918 5.14984e-005 30.6637 -0.373277 -6.42843 -21.7193 -1.57147 -3.79508 145.255 -33.9678 121.482 17.4439 -1.14441e-005 7.62939e-006 42.1489 6.81146 -101.78 30.6251 7.6294e-006 1.90735e-006 -21.6572 -1.72861e-005 -6.82097e-006 31.204 -2.86103e-006 1.90735e-006 -37.0163 82.3874 9.55196 22.1039 0.255852 -0.379036 -8.70663 9.65669 -42.2509 12.0552 3.81471e-006 1.19209e-007 179.96 1.74768e-005 -1.01574e-005 -20.3324 -1.6518 8.51245 154.596 43.6801 -106.613 17.4439 7.6294e-006 1.52588e-005 39.6617 -48.7679 87.1648 30.6251 -6.67573e-006 7.62939e-006 -63.1325 -8.12724e-006 -1.34694e-005 31.204 -3.8147e-006 3.81469e-006 -164.764 -73.5035 -163.118 22.1039 0.25586 0.37902 -10.7624 6.07328 10.0774 12.0552 0 -3.81469e-006 -1.6142e-007 1.03261e-005 4.23305e-007 14.9354 -0.0106735 0.000170708 1.28798 -0.903701 1.44067 14.3577 0.505509 8.88179e-016 -21.0984 -3.53519 1.6727 3.7699 -2.35626 12.3444 -172.167 32.7142 -81.1406 3.76995 -2.3562 -12.3442 5.88484 29.4885 114.375 11.8396 10.8645 -2.38419e-007 -177.001 -3.70307 178.785 9.73751 3.21674 -9.53675e-007 -2.85749 9.76993e-006 4.57906e-007 5.17483 0.535248 -0.1598 -9.73031 2.3586e-007 1.0119e-005 6.93465 -0.751786 -9.53675e-007 -85.1773 -2.85033 -1.72699 13.0965 -7.6294e-006 -2.38419e-007 -7.89265 -1.63549 -12.1212 25.6158 7.6294e-006 0 -6.59263e-008 1.08709e-006 -6.07726e-008 
-47.0406 60.204 1.37519 85.0645 -81.9505 171.18 -3.8147e-006 4.76837e-007 -7.10543e-015 -92.1869 -21.4239 -79.3876 -18.6385 -9.59101 -1.77636e-015 -51.1164 0.37854 179.943 20.9743 -7.6294e-006 -0.000607491 22.5997 0.433484 10.2082 20.3015 7.6294e-006 4.52971e-014 4.93026 2.35492 17.2082 21.6394 -7.6294e-006 1.90735e-006 7.03832 5.19144 30.8023 20.0743 -8.71767 3.73211 -12.7596 8.204 -4.14654 -22.9818 1.05263 -19.5903 -77.3962 -6.62792 168.89 34.2647 -3.8147e-006 -3.8147e-006 -62.0841 3.61411e-006 9.27712e-006 20.4429 3.8147e-006 -3.8147e-006 80.5865 5.12067e-008 -4.74818e-007 16.5673 1.42109e-014 -3.8147e-006 -1.17873 6.84363 8.81774 9.18785 6.9484 1.67339e-009 91.345 -2.24142e-007 -1.04678e-005 1.01905 -2.38418e-007 0 -2.86893e-008 -7.14665e-009 2.11651e-006 -20.5324 5.93481 14.1753 -121.929 14.5119 -174.108 34.2647 -9.05991e-006 -3.55271e-015 -99.1011 -7.31534e-006 -1.86712e-005 20.4429 -1.90735e-006 -3.8147e-006 109.353 5.64893e-006 -1.25107e-005 16.5673 -3.8147e-006 -3.8147e-006 -36.0045 -5.90272 -3.10365 9.18784 6.94841 -3.8068e-006 89.757 -1.66964e-007 -1.50932e-006 1.01907 1.19209e-007 3.8147e-006 -179.96 -5.89752e-005 1.70331e-005 39.3329 -0.0241928 -0.000947475 -8.79705 2.59414 5.5062 34.2892 -15.5918 5.15068e-005 30.0542 -0.417739 -6.21847 -21.6869 -1.79144 -3.87947 145.785 -35.1887 118.746 17.4439 -1.14441e-005 7.62939e-006 46.7309 7.19532 -99.1543 30.6251 7.6294e-006 1.90735e-006 -32.0892 -1.61519e-005 -1.03854e-005 31.204 -2.86103e-006 1.90735e-006 -32.9135 81.7182 9.28716 22.1039 0.255853 -0.379036 -8.19942 9.66767 -39.868 12.0552 3.81471e-006 1.19209e-007 179.96 1.74765e-005 -1.01563e-005 -20.3451 -1.88143 8.43298 155.576 46.1443 -108.544 17.4439 7.6294e-006 1.52588e-005 43.5991 -56.9603 89.6685 30.6251 -6.67573e-006 7.62939e-006 -56.0208 -1.78466e-005 -7.67333e-006 31.204 -3.8147e-006 3.81469e-006 -169.235 -73.8506 -163.696 22.1039 0.25586 0.37902 -11.0938 6.08227 8.11781 12.0552 -4.26327e-014 -3.81469e-006 -1.6142e-007 1.03261e-005 4.23305e-007 14.9354 -0.0106735 0.000170708 1.22393 -0.91713 2.25295 14.3577 0.505509 -5.62549e-010 -25.952 -3.40104 1.93509 3.7699 -2.35626 12.3444 -171.93 32.0076 -81.1504 3.76995 -2.3562 -12.3442 6.58755 29.6296 112.461 11.8396 10.8645 -2.7454e-007 -176.998 -3.70341 178.785 9.73751 3.21674 -9.66727e-007 -2.85749 9.73344e-006 4.46317e-007 5.17483 0.535248 -0.1598 -9.73031 1.21518e-007 1.00859e-005 6.93465 -0.751786 -9.50624e-007 -83.6375 -4.62314 -4.52135 13.0965 -7.62941e-006 -2.38419e-007 -5.39226 -2.80712 -12.6798 25.6158 7.6294e-006 -1.15463e-014 -6.59263e-008 1.08709e-006 -6.07726e-008 
-50.6682 61.1544 1.37519 76.9825 -81.6947 160.447 -3.8147e-006 4.76837e-007 0 -91.5066 -20.3223 -77.1154 -18.6385 -9.59101 -3.55271e-015 -53.5451 0.516586 179.955 20.9743 -7.6294e-006 -0.000607491 22.1133 1.02461 11.8199 20.3015 7.6294e-006 1.03917e-013 -1.49708 1.87967 17.7457 21.6394 -7.6294e-006 1.90735e-006 -0.641901 4.3012 30.9214 20.069 -8.32471 4.56981 -9.95001 7.85226 -6.99519 -23.7415 1.72466 -19.3679 -81.2673 -6.40952 167.066 34.2647 -3.8147e-006 -3.8147e-006 -67.7931 3.48523e-006 9.25078e-006 20.4429 3.8147e-006 -3.8147e-006 86.7962 7.86018e-009 -4.7241e-007 16.5673 0 -3.8147e-006 -6.53952 7.04532 8.51667 9.18785 6.9484 3.27874e-009 91.3504 -2.13887e-007 -1.0481e-005 1.01905 -2.38418e-007 0 -2.86893e-008 -7.14665e-009 2.11651e-006 -19.6145 6.39892 14.2639 -120.112 14.3291 -177.251 34.2647 -9.05991e-006 -3.55271e-015 -89.8331 -1.24431e-006 -1.7272e-005 20.4429 -1.90735e-006 -3.8147e-006 107.887 6.01557e-006 -1.23932e-005 16.5673 -3.8147e-006 -3.8147e-006 -43.1115 -6.79964 -2.18415 9.18784 6.94841 -3.80006e-006 89.5224 -1.1717e-007 -1.56468e-006 1.01907 1.19209e-007 3.8147e-006 -179.96 -5.89751e-005 1.70331e-005 39.3347 -0.0241928 -0.000947475 -3.33354 2.97562 5.48183 34.2892 -15.5918 5.15145e-005 29.4608 -0.46669 -5.98406 -21.6507 -2.00618 -3.97258 146.32 -36.4187 116.081 17.4439 -1.14441e-005 7.62939e-006 51.7275 9.21061 -97.2139 30.6251 7.6294e-006 1.90735e-006 -40.2942 -1.55103e-005 -1.20709e-005 31.204 -2.86103e-006 1.90735e-006 -27.6932 81.2524 7.14734 22.1039 0.255853 -0.379036 -7.6985 9.70095 -37.5656 12.0552 3.81471e-006 1.19209e-007 179.96 1.74762e-005 -1.01552e-005 -20.3587 -2.10681 8.34511 156.571 48.7411 -110.58 17.4439 7.6294e-006 1.52588e-005 48.5736 -65.1612 93.0713 30.6251 -6.67573e-006 7.62939e-006 -48.5881 -1.90723e-005 -5.94882e-006 31.204 -3.8147e-006 3.81469e-006 -172.588 -74.09 -163.017 22.1039 0.25586 0.37902 -11.84 6.12384 6.23957 12.0552 -2.13164e-014 -3.81469e-006 -1.6142e-007 1.03261e-005 4.23306e-007 14.9354 -0.0106735 0.000170708 1.13755 -0.931608 3.07338 14.3577 0.505509 -1.26544e-009 -30.7725 -2.96839 2.36176 3.7699 -2.35626 12.3444 -171.311 30.1852 -81.2117 3.76995 -2.3562 -12.3442 8.45876 29.5406 107.681 11.8396 10.8645 -3.30253e-007 -176.989 -3.70379 178.786 9.73751 3.21674 -9.8537e-007 -2.85749 9.69271e-006 4.29762e-007 5.17483 0.535248 -0.1598 -9.7303 -2.14537e-008 1.00368e-005 6.93465 -0.751786 -9.46267e-007 -79.0252 -7.85617 -8.51471 13.0965 -7.62941e-006 -2.38419e-007 0.28557 -5.48781 -13.9909 25.6158 7.6294e-006 -4.44089e-014 -6.59263e-008 1.08709e-006 -6.07726e-008 
-54.127 61.2956 1.37519 74.0868 -81.27 156.372 -3.8147e-006 4.76837e-007 0 -91.313 -18.9018 -75.8137 -18.6385 -9.59101 1.77636e-015 -56.4727 0.74205 179.965 20.9743 -7.6294e-006 -0.000607491 21.3193 1.8695 14.0538 20.3015 7.6294e-006 1.35003e-013 -9.17698 1.13058 18.392 21.6394 -7.6294e-006 1.90735e-006 -10.2666 2.93468 31.0646 20.1537 -7.81184 5.0753 -8.13434 7.69401 -8.73183 -24.2481 1.86798 -19.1725 -84.9443 -6.04236 165.953 34.2647 -3.8147e-006 -3.8147e-006 -73.7083 2.51461e-006 9.55207e-006 20.4429 3.8147e-006 -3.8147e-006 92.1935 -3.19838e-008 -4.66867e-007 16.5673 0 -3.8147e-006 -10.6136 7.18846 8.38472 9.18785 6.9484 4.08019e-009 91.3559 -2.11107e-007 -1.04876e-005 1.01905 -2.38418e-007 0 -2.86893e-008 -7.14665e-009 2.11651e-006 -19.1019 6.44777 14.3315 -119.902 13.6613 -179.211 34.2647 -9.05991e-006 -7.10543e-015 -83.7912 -1.204e-005 -1.60788e-005 20.4429 -1.90735e-006 -3.8147e-006 107.206 -3.09425e-006 -9.46201e-006 16.5673 -3.8147e-006 -3.8147e-006 -48.8124 -7.59021 -1.32438 9.18784 6.94841 -3.79721e-006 89.0606 0.00245201 3.86222e-005 1.01907 1.19209e-007 3.8147e-006 -179.96 -5.89751e-005 1.70331e-005 39.3365 -0.0241928 -0.000947475 0.446545 3.19029 5.46838 34.2892 -15.5918 5.15173e-005 28.8587 -0.520882 -5.72937 -21.6105 -2.22163 -4.07516 146.877 -37.6877 113.407 17.4439 -1.14441e-005 7.62939e-006 55.7947 10.0951 -95.7928 30.6251 7.6294e-006 1.90735e-006 -49.3682 -1.33799e-005 -1.4919e-005 31.204 -2.86103e-006 1.90735e-006 -18.5326 81.1676 1.64319 22.1039 0.255853 -0.379036 -7.19441 9.75493 -35.2405 12.0552 3.81471e-006 1.19209e-007 179.96 1.74759e-005 -1.01545e-005 -20.3734 -2.33406 8.24806 157.585 51.404 -112.678 17.4439 7.6294e-006 1.52588e-005 54.4741 -69.6274 96.803 30.6251 -6.67573e-006 7.62939e-006 -46.0414 -1.96645e-005 -5.44753e-006 31.204 -3.8147e-006 3.81469e-006 -171.891 -74.4251 -161.218 22.1039 0.25586 0.37902 -12.6993 6.19831 4.35935 12.0552 -4.26327e-014 -3.81469e-006 -1.6142e-007 1.03261e-005 4.23306e-007 14.9354 -0.0106735 0.000170708 1.02988 -0.95159 3.91943 14.3577 0.505509 -1.3809e-009 -32.6746 -2.19038 3.00705 3.7699 -2.35626 12.3444 -170.279 27.3042 -81.5074 3.76995 -2.3562 -12.3442 11.1211 28.3808 101.341 11.8395 10.8645 -3.78502e-007 -176.974 -3.70431 178.787 9.73751 3.21674 -1.00036e-006 -2.85749 9.66763e-006 4.16453e-007 5.17483 0.535248 -0.1598 -9.7303 -1.1488e-007 9.99594e-006 6.93465 -0.751786 -9.42764e-007 -71.9718 -11.6616 -11.7623 13.0965 -7.62941e-006 -2.38419e-007 6.96617 -8.67598 -15.6311 25.6158 7.6294e-006 -6.92779e-014 -6.59263e-008 1.08709e-006 -6.07726e-008 
